<!-- Generated by IcoMoon.io -->
<svg version="1.1" xmlns="http://www.w3.org/2000/svg" width="32" height="32" viewBox="0 0 32 32">
<title>facebook.svg</title>
<path d="M22.362 0h-3.333c-2.55 0-4.382 0.605-5.495 1.816s-1.67 2.994-1.67 5.35v2.246c0 0.593-0.481 1.075-1.075 1.075h-1.152c-0.593 0-1.075 0.481-1.075 1.075v3.365c0 0.593 0.481 1.075 1.075 1.075h1.152c0.593 0 1.075 0.481 1.075 1.075v13.851c0 0.593 0.481 1.075 1.075 1.075h4.472c0.593 0 1.075-0.481 1.075-1.075v-13.851c0-0.594 0.481-1.075 1.075-1.075h2.259c0.594 0 1.125-0.479 1.187-1.068l0.357-3.377c0.062-0.59-0.368-1.069-0.962-1.069h-2.841c-0.593 0-1.075-0.481-1.075-1.075v-1.683c0-0.414 0.019-0.734 0.058-0.961s0.126-0.449 0.262-0.67c0.136-0.22 0.356-0.372 0.66-0.456s0.709-0.126 1.213-0.126h1.683c0.593 0 1.075-0.481 1.075-1.075v-3.365c0-0.593-0.481-1.075-1.074-1.075z"></path>
</svg>
