<svg style="position: absolute; width: 0; height: 0; overflow: hidden;" version="1.1" xmlns="http://www.w3.org/2000/svg" xmlns:xlink="http://www.w3.org/1999/xlink">
<defs>
<symbol id="icon-facebook.svg" viewBox="0 0 32 32">
<title>facebook.svg</title>
<path d="M22.362 0h-3.333c-2.55 0-4.382 0.605-5.495 1.816s-1.67 2.994-1.67 5.35v2.246c0 0.593-0.481 1.075-1.075 1.075h-1.152c-0.593 0-1.075 0.481-1.075 1.075v3.365c0 0.593 0.481 1.075 1.075 1.075h1.152c0.593 0 1.075 0.481 1.075 1.075v13.851c0 0.593 0.481 1.075 1.075 1.075h4.472c0.593 0 1.075-0.481 1.075-1.075v-13.851c0-0.594 0.481-1.075 1.075-1.075h2.259c0.594 0 1.125-0.479 1.187-1.068l0.357-3.377c0.062-0.59-0.368-1.069-0.962-1.069h-2.841c-0.593 0-1.075-0.481-1.075-1.075v-1.683c0-0.414 0.019-0.734 0.058-0.961s0.126-0.449 0.262-0.67c0.136-0.22 0.356-0.372 0.66-0.456s0.709-0.126 1.213-0.126h1.683c0.593 0 1.075-0.481 1.075-1.075v-3.365c0-0.593-0.481-1.075-1.074-1.075z"></path>
</symbol>
<symbol id="icon-google-plus.svg" viewBox="0 0 32 32">
<title>google-plus.svg</title>
<path d="M20.694 0h-7.631c-3.401 0-5.755 0.746-7.874 2.496-1.666 1.438-2.66 3.527-2.66 5.589 0 3.177 2.422 6.553 6.911 6.553 0.432 0 0.909-0.044 1.331-0.083l-0.062 0.151c-0.18 0.432-0.351 0.839-0.351 1.476 0 1.239 0.598 2.004 1.176 2.742l0.073 0.094-0.129 0.009c-1.854 0.127-5.304 0.364-7.824 1.913-2.977 1.77-3.208 4.344-3.208 5.091 0 2.97 2.768 5.969 8.953 5.969 7.191 0 10.954-3.967 10.954-7.886 0.001-2.898-1.699-4.329-3.503-5.849l-1.522-1.184c-0.47-0.39-1.056-0.874-1.056-1.773 0-0.883 0.586-1.466 1.103-1.981l0.054-0.055c1.644-1.294 3.506-2.762 3.506-5.937 0-3.192-1.995-4.842-2.954-5.634h2.532c0 0 0.001 0 0.001 0 0.032 0 0.062-0.010 0.088-0.026l-0.001 0 2.182-1.371c0.046-0.030 0.076-0.081 0.076-0.139 0-0.091-0.074-0.165-0.165-0.165v0zM11.439 30.251c-4.384 0-7.329-2.047-7.329-5.095 0-1.99 1.205-3.436 3.577-4.296 1.9-0.639 4.352-0.671 4.377-0.671 0.415 0 0.625 0 0.956 0.041 3.067 2.183 4.541 3.329 4.541 5.512 0 2.781-2.346 4.508-6.123 4.508zM11.398 13.469c-3.679 0-5.206-4.836-5.206-7.425 0-1.317 0.299-2.327 0.915-3.090 0.669-0.837 1.813-1.377 2.916-1.377 3.378 0 5.246 4.541 5.246 7.678 0 0.495 0 2.001-1.040 3.047-0.7 0.698-1.838 1.167-2.832 1.167zM31.39 14.946h-4.021v-4.007c0-0.091-0.074-0.165-0.165-0.165v0h-1.73c-0.091 0-0.165 0.074-0.165 0.165v0 4.007h-4.001c-0.091 0-0.165 0.074-0.165 0.165v0 1.753c0 0.091 0.074 0.165 0.165 0.165v0h4.001v4.033c0 0.091 0.074 0.165 0.165 0.165v0h1.73c0.091 0 0.165-0.074 0.165-0.165v0-4.034h4.021c0.091 0 0.165-0.074 0.165-0.165v0-1.752c0-0.091-0.074-0.165-0.165-0.165v0z"></path>
</symbol>
<symbol id="icon-linkedin.svg" viewBox="0 0 32 32">
<title>linkedin.svg</title>
<path d="M7.449 10.295h-6.424c-0.285 0-0.516 0.231-0.516 0.516v0 20.638c0 0.285 0.231 0.516 0.516 0.516v0h6.424c0.285 0 0.516-0.231 0.516-0.516v0-20.638c0-0.285-0.231-0.516-0.516-0.516v0zM4.239 0.035c-2.337 0-4.239 1.9-4.239 4.235 0 2.336 1.902 4.236 4.239 4.236 2.336 0 4.236-1.9 4.236-4.236s-1.9-4.234-4.236-4.234zM23.789 9.782c-2.58 0-4.487 1.109-5.644 2.37v-1.34c0-0.285-0.231-0.516-0.516-0.516v0h-6.152c-0.285 0-0.516 0.231-0.516 0.516v0 20.638c0 0.285 0.231 0.516 0.516 0.516v0h6.41c0.285 0 0.516-0.231 0.516-0.516v0-10.211c0-3.441 0.935-4.781 3.333-4.781 2.612 0 2.82 2.149 2.82 4.958v10.034c0 0.285 0.231 0.516 0.516 0.516v0h6.412c0.285 0 0.516-0.231 0.516-0.516v0-11.32c0-5.116-0.975-10.347-8.211-10.347z"></path>
</symbol>
<symbol id="icon-rss.svg" viewBox="0 0 32 32">
<title>rss.svg</title>
<path d="M0.012 0v6.136c14.244 0 25.836 11.604 25.836 25.864h6.152c-0-17.64-14.352-32-31.988-32z"></path>
<path d="M0.004 10.87v6.134c3.994 0 7.748 1.562 10.576 4.392 2.824 2.822 4.384 6.594 4.384 10.604h6.162c0-11.652-9.478-21.13-21.122-21.13z"></path>
<path d="M4.26 23.464c-2.35 0-4.26 1.914-4.26 4.25 0 2.35 1.91 4.246 4.26 4.246 2.358 0 4.266-1.896 4.266-4.246-0.002-2.332-1.908-4.25-4.266-4.25z"></path>
</symbol>
<symbol id="icon-skype.svg" viewBox="0 0 32 32">
<title>skype.svg</title>
<path d="M30.605 17.932c0.452 0.638 0.795 1.333 1.037 2.093 0.239 0.757 0.359 1.542 0.359 2.352 0 1.163-0.235 2.255-0.7 3.278-0.487 1.052-1.135 1.948-1.923 2.698l-0.004 0.003c-0.819 0.773-1.771 1.382-2.866 1.821s-2.246 0.659-3.472 0.659c-1.745 0-3.309-0.412-4.699-1.236-0.385 0.053-0.773 0.093-1.165 0.122-0.393 0.027-0.784 0.037-1.172 0.037-2.039 0-3.952-0.365-5.741-1.094-1.787-0.731-3.351-1.728-4.699-2.993-1.313-1.232-2.38-2.71-3.13-4.361l-0.035-0.086c-0.729-1.579-1.154-3.427-1.154-5.374 0-0.029 0-0.057 0-0.086l-0 0.004c0-0.375 0.019-0.731 0.058-1.060 0.036-0.332 0.085-0.667 0.136-1.003-0.957-1.329-1.433-2.753-1.433-4.283 0-1.138 0.235-2.213 0.702-3.224 0.465-1.010 1.103-1.887 1.922-2.634 0.809-0.734 1.76-1.33 2.802-1.743l0.063-0.022c1.010-0.406 2.18-0.641 3.406-0.641 0.024 0 0.048 0 0.072 0l-0.004-0c0.028-0 0.061-0 0.094-0 1.694 0 3.282 0.451 4.651 1.24l-0.045-0.024c0.385-0.053 0.777-0.093 1.165-0.122 0.393-0.024 0.787-0.040 1.169-0.040 2.046 0 3.967 0.359 5.762 1.066 1.818 0.713 3.38 1.698 4.718 2.923l-0.011-0.010c1.306 1.197 2.374 2.628 3.144 4.229l0.036 0.083c0.727 1.52 1.152 3.303 1.152 5.186 0 0.028-0 0.055-0 0.083l0-0.004c0 0.691-0.062 1.411-0.194 2.162zM23.034 22.187c0.63-0.829 0.941-1.803 0.941-2.924 0-0.88-0.173-1.621-0.518-2.219-0.384-0.62-0.897-1.126-1.504-1.49l-0.020-0.011c-0.602-0.385-1.385-0.731-2.343-1.039-0.171-0.077-1.202-0.326-2.237-0.562l-0.828-0.159-1.183-0.27c-0.319-0.069-0.571-0.126-0.761-0.178-0.241-0.058-0.439-0.119-0.632-0.189l0.039 0.013c-0.249-0.088-0.43-0.161-0.608-0.239l0.061 0.024c-0.361-0.15-0.664-0.356-0.904-0.598-0.186-0.209-0.279-0.489-0.279-0.837 0-0.509 0.302-0.963 0.904-1.366 0.682-0.376 1.515-0.558 2.505-0.545 1.143 0 1.948 0.169 2.401 0.508 0.547 0.401 0.977 0.896 1.284 1.479 0.266 0.428 0.538 0.747 0.819 0.957 0.266 0.205 0.638 0.315 1.103 0.33 0.526 0 0.961-0.173 1.326-0.525 0.359-0.327 0.529-0.695 0.518-1.11 0-0.478-0.133-0.951-0.399-1.406-0.266-0.425-0.707-0.881-1.316-1.363-0.643-0.434-1.388-0.786-2.185-1.016l-0.056-0.014c-0.412-0.117-0.914-0.22-1.427-0.287l-0.055-0.006c-0.521-0.066-1.090-0.096-1.72-0.096-1.588 0-2.926 0.194-4.016 0.582-1.169 0.405-2.057 0.961-2.658 1.681-0.601 0.686-0.901 1.51-0.901 2.472 0 1.013 0.292 1.837 0.864 2.472 0.579 0.687 1.362 1.207 2.352 1.559 0.941 0.376 2.144 0.704 3.619 0.99 0.552 0.13 1.034 0.239 1.462 0.324 0.419 0.082 0.8 0.177 1.134 0.279 0.629 0.173 1.139 0.458 1.528 0.866 0.416 0.352 0.625 0.807 0.625 1.369 0 0.773-0.38 1.401-1.13 1.879-0.711 0.492-1.67 0.731-2.878 0.715-0.967 0-1.668-0.112-2.113-0.338-0.55-0.253-0.957-0.571-1.223-0.95-0.323-0.414-0.601-0.887-0.814-1.394l-0.015-0.041c-0.19-0.492-0.447-0.864-0.781-1.116-0.289-0.236-0.662-0.379-1.068-0.379-0.014 0-0.027 0-0.041 0l0.002-0c-0.547 0-0.999 0.153-1.355 0.452-0.359 0.343-0.532 0.744-0.522 1.192 0 0.784 0.29 1.565 0.864 2.349 0.571 0.807 1.302 1.435 2.193 1.89 1.308 0.675 2.95 1.017 4.921 1.030 1.608 0 3.043-0.239 4.292-0.718 1.223-0.542 2.14-1.216 2.735-2.025z"></path>
</symbol>
<symbol id="icon-tumblr.svg" viewBox="0 0 32 32">
<title>tumblr.svg</title>
<path d="M23.555 25.448s-0.95 1.092-2.754 1.092-2.611-1.092-2.611-2.706v-9.147h5.834v-5.543h-5.834v-9.143h-4.393c-0.686 4.103-3.392 7.52-7.061 9.197v5.49h4.285v10.534c0 1.462 1.377 6.78 8.403 6.78 4.131 0 5.84-2.659 5.84-2.659l-1.709-3.893z"></path>
</symbol>
<symbol id="icon-twitter.svg" viewBox="0 0 32 32">
<title>twitter.svg</title>
<path d="M31.057 6.28c-0.158 0.046-0.315 0.089-0.473 0.129-0.964 0.244-1.053-0.078-0.355-0.787 0.303-0.308 0.576-0.647 0.814-1.011l0.015-0.025c0.538-0.837 0.071-1.202-0.844-0.811-0.237 0.107-0.566 0.236-0.901 0.351l-0.093 0.028c-0.943 0.317-2.28-0.161-3.121-0.694-1.061-0.672-2.266-1.009-3.616-1.009-1.892 0-3.504 0.667-4.838 2s-2.001 2.947-2.001 4.838c0 0.259 0.015 0.521 0.044 0.788 0.048 0.433-0.682 0.747-1.667 0.608-2.13-0.301-4.154-0.946-6.072-1.936-1.902-0.981-3.581-2.216-5.036-3.704-0.696-0.711-1.637-0.65-1.896 0.31-0.156 0.576-0.233 1.174-0.233 1.796 0 1.172 0.275 2.258 0.826 3.26 0.274 0.499 0.594 0.95 0.963 1.354 0.619 0.68 0.524 1.074-0.337 0.832s-1.493-0.6-1.493-0.577v0.043c0 1.651 0.518 3.101 1.556 4.35 0.639 0.769 1.381 1.364 2.227 1.782 0.892 0.442 1.307 0.688 0.808 0.753-0.301 0.039-0.603 0.058-0.908 0.058-0.206 0-0.422-0.009-0.648-0.028-0.357-0.030-0.421 0.713 0.12 1.548 0.43 0.664 0.98 1.247 1.65 1.752 0.682 0.513 1.416 0.882 2.202 1.106 0.957 0.273 1.149 0.769 0.296 1.281-2.111 1.267-4.447 1.9-7.007 1.9-0.289 0-0.564-0.006-0.827-0.019-0.456-0.022-0.15 0.38 0.731 0.841 2.753 1.442 5.735 2.162 8.945 2.162 2.427 0 4.707-0.384 6.838-1.153s3.951-1.8 5.461-3.091 2.812-2.776 3.906-4.456c1.094-1.68 1.908-3.433 2.445-5.261s0.804-3.659 0.804-5.494c0-0.165-0.001-0.314-0.004-0.444-0.005-0.246 0.645-0.911 1.37-1.591 0.327-0.308 0.634-0.624 0.925-0.953l0.013-0.015c0.658-0.747 0.367-1.089-0.588-0.81z"></path>
</symbol>
<symbol id="icon-vimeo.svg" viewBox="0 0 32 32">
<title>vimeo.svg</title>
<path d="M30.675 3.854c-0.775-0.835-1.896-1.28-3.333-1.322-4.057-0.131-6.926 2.027-8.527 6.413-0.025 0.067-0.040 0.144-0.040 0.224 0 0.171 0.066 0.327 0.174 0.443l-0-0c0.119 0.129 0.289 0.21 0.477 0.21 0.061 0 0.121-0.009 0.177-0.024l-0.005 0.001c0.461-0.127 0.917-0.191 1.358-0.191 0.591 0 1.378 0.109 1.77 0.626 0.301 0.397 0.342 0.993 0.122 1.771-0.186 0.656-1.141 2.412-2.324 4.271-1.441 2.264-2.236 3.279-2.466 3.279-0.76 0-3.507-12.18-3.583-12.447-0.788-2.791-1.183-4.193-3.745-4.193-1.953 0-6.308 3.566-9.883 6.672-0.22 0.191-0.405 0.352-0.549 0.475-0.183 0.157-0.298 0.388-0.298 0.646 0 0.198 0.068 0.38 0.181 0.524l-0.001-0.002 0.666 0.858c0.157 0.202 0.399 0.33 0.672 0.33 0.185 0 0.357-0.059 0.496-0.16l-0.002 0.002 0.037-0.026c1.157-0.823 2.25-1.6 3.075-1.643 0.897-0.044 1.674 1.357 2.602 4.69 1.766 6.474 4.45 14.191 7.204 14.191 2.878 0 6.312-2.44 10.75-8.216 4.017-5.227 6.168-9.374 6.306-12.39 0.104-2.278-0.337-3.965-1.31-5.014z"></path>
</symbol>
</defs>
</svg>
