<!-- Generated by IcoMoon.io -->
<svg version="1.1" xmlns="http://www.w3.org/2000/svg" width="32" height="32" viewBox="0 0 32 32">
<title>skype.svg</title>
<path d="M30.605 17.932c0.452 0.638 0.795 1.333 1.037 2.093 0.239 0.757 0.359 1.542 0.359 2.352 0 1.163-0.235 2.255-0.7 3.278-0.487 1.052-1.135 1.948-1.923 2.698l-0.004 0.003c-0.819 0.773-1.771 1.382-2.866 1.821s-2.246 0.659-3.472 0.659c-1.745 0-3.309-0.412-4.699-1.236-0.385 0.053-0.773 0.093-1.165 0.122-0.393 0.027-0.784 0.037-1.172 0.037-2.039 0-3.952-0.365-5.741-1.094-1.787-0.731-3.351-1.728-4.699-2.993-1.313-1.232-2.38-2.71-3.13-4.361l-0.035-0.086c-0.729-1.579-1.154-3.427-1.154-5.374 0-0.029 0-0.057 0-0.086l-0 0.004c0-0.375 0.019-0.731 0.058-1.060 0.036-0.332 0.085-0.667 0.136-1.003-0.957-1.329-1.433-2.753-1.433-4.283 0-1.138 0.235-2.213 0.702-3.224 0.465-1.010 1.103-1.887 1.922-2.634 0.809-0.734 1.76-1.33 2.802-1.743l0.063-0.022c1.010-0.406 2.18-0.641 3.406-0.641 0.024 0 0.048 0 0.072 0l-0.004-0c0.028-0 0.061-0 0.094-0 1.694 0 3.282 0.451 4.651 1.24l-0.045-0.024c0.385-0.053 0.777-0.093 1.165-0.122 0.393-0.024 0.787-0.040 1.169-0.040 2.046 0 3.967 0.359 5.762 1.066 1.818 0.713 3.38 1.698 4.718 2.923l-0.011-0.010c1.306 1.197 2.374 2.628 3.144 4.229l0.036 0.083c0.727 1.52 1.152 3.303 1.152 5.186 0 0.028-0 0.055-0 0.083l0-0.004c0 0.691-0.062 1.411-0.194 2.162zM23.034 22.187c0.63-0.829 0.941-1.803 0.941-2.924 0-0.88-0.173-1.621-0.518-2.219-0.384-0.62-0.897-1.126-1.504-1.49l-0.020-0.011c-0.602-0.385-1.385-0.731-2.343-1.039-0.171-0.077-1.202-0.326-2.237-0.562l-0.828-0.159-1.183-0.27c-0.319-0.069-0.571-0.126-0.761-0.178-0.241-0.058-0.439-0.119-0.632-0.189l0.039 0.013c-0.249-0.088-0.43-0.161-0.608-0.239l0.061 0.024c-0.361-0.15-0.664-0.356-0.904-0.598-0.186-0.209-0.279-0.489-0.279-0.837 0-0.509 0.302-0.963 0.904-1.366 0.682-0.376 1.515-0.558 2.505-0.545 1.143 0 1.948 0.169 2.401 0.508 0.547 0.401 0.977 0.896 1.284 1.479 0.266 0.428 0.538 0.747 0.819 0.957 0.266 0.205 0.638 0.315 1.103 0.33 0.526 0 0.961-0.173 1.326-0.525 0.359-0.327 0.529-0.695 0.518-1.11 0-0.478-0.133-0.951-0.399-1.406-0.266-0.425-0.707-0.881-1.316-1.363-0.643-0.434-1.388-0.786-2.185-1.016l-0.056-0.014c-0.412-0.117-0.914-0.22-1.427-0.287l-0.055-0.006c-0.521-0.066-1.090-0.096-1.72-0.096-1.588 0-2.926 0.194-4.016 0.582-1.169 0.405-2.057 0.961-2.658 1.681-0.601 0.686-0.901 1.51-0.901 2.472 0 1.013 0.292 1.837 0.864 2.472 0.579 0.687 1.362 1.207 2.352 1.559 0.941 0.376 2.144 0.704 3.619 0.99 0.552 0.13 1.034 0.239 1.462 0.324 0.419 0.082 0.8 0.177 1.134 0.279 0.629 0.173 1.139 0.458 1.528 0.866 0.416 0.352 0.625 0.807 0.625 1.369 0 0.773-0.38 1.401-1.13 1.879-0.711 0.492-1.67 0.731-2.878 0.715-0.967 0-1.668-0.112-2.113-0.338-0.55-0.253-0.957-0.571-1.223-0.95-0.323-0.414-0.601-0.887-0.814-1.394l-0.015-0.041c-0.19-0.492-0.447-0.864-0.781-1.116-0.289-0.236-0.662-0.379-1.068-0.379-0.014 0-0.027 0-0.041 0l0.002-0c-0.547 0-0.999 0.153-1.355 0.452-0.359 0.343-0.532 0.744-0.522 1.192 0 0.784 0.29 1.565 0.864 2.349 0.571 0.807 1.302 1.435 2.193 1.89 1.308 0.675 2.95 1.017 4.921 1.030 1.608 0 3.043-0.239 4.292-0.718 1.223-0.542 2.14-1.216 2.735-2.025z"></path>
</svg>
