<!-- Generated by IcoMoon.io -->
<svg version="1.1" xmlns="http://www.w3.org/2000/svg" width="32" height="32" viewBox="0 0 32 32">
<title>twitter.svg</title>
<path d="M31.057 6.28c-0.158 0.046-0.315 0.089-0.473 0.129-0.964 0.244-1.053-0.078-0.355-0.787 0.303-0.308 0.576-0.647 0.814-1.011l0.015-0.025c0.538-0.837 0.071-1.202-0.844-0.811-0.237 0.107-0.566 0.236-0.901 0.351l-0.093 0.028c-0.943 0.317-2.28-0.161-3.121-0.694-1.061-0.672-2.266-1.009-3.616-1.009-1.892 0-3.504 0.667-4.838 2s-2.001 2.947-2.001 4.838c0 0.259 0.015 0.521 0.044 0.788 0.048 0.433-0.682 0.747-1.667 0.608-2.13-0.301-4.154-0.946-6.072-1.936-1.902-0.981-3.581-2.216-5.036-3.704-0.696-0.711-1.637-0.65-1.896 0.31-0.156 0.576-0.233 1.174-0.233 1.796 0 1.172 0.275 2.258 0.826 3.26 0.274 0.499 0.594 0.95 0.963 1.354 0.619 0.68 0.524 1.074-0.337 0.832s-1.493-0.6-1.493-0.577v0.043c0 1.651 0.518 3.101 1.556 4.35 0.639 0.769 1.381 1.364 2.227 1.782 0.892 0.442 1.307 0.688 0.808 0.753-0.301 0.039-0.603 0.058-0.908 0.058-0.206 0-0.422-0.009-0.648-0.028-0.357-0.030-0.421 0.713 0.12 1.548 0.43 0.664 0.98 1.247 1.65 1.752 0.682 0.513 1.416 0.882 2.202 1.106 0.957 0.273 1.149 0.769 0.296 1.281-2.111 1.267-4.447 1.9-7.007 1.9-0.289 0-0.564-0.006-0.827-0.019-0.456-0.022-0.15 0.38 0.731 0.841 2.753 1.442 5.735 2.162 8.945 2.162 2.427 0 4.707-0.384 6.838-1.153s3.951-1.8 5.461-3.091 2.812-2.776 3.906-4.456c1.094-1.68 1.908-3.433 2.445-5.261s0.804-3.659 0.804-5.494c0-0.165-0.001-0.314-0.004-0.444-0.005-0.246 0.645-0.911 1.37-1.591 0.327-0.308 0.634-0.624 0.925-0.953l0.013-0.015c0.658-0.747 0.367-1.089-0.588-0.81z"></path>
</svg>
