<!-- Generated by IcoMoon.io -->
<svg version="1.1" xmlns="http://www.w3.org/2000/svg" width="32" height="32" viewBox="0 0 32 32">
<title>vimeo.svg</title>
<path d="M30.675 3.854c-0.775-0.835-1.896-1.28-3.333-1.322-4.057-0.131-6.926 2.027-8.527 6.413-0.025 0.067-0.040 0.144-0.040 0.224 0 0.171 0.066 0.327 0.174 0.443l-0-0c0.119 0.129 0.289 0.21 0.477 0.21 0.061 0 0.121-0.009 0.177-0.024l-0.005 0.001c0.461-0.127 0.917-0.191 1.358-0.191 0.591 0 1.378 0.109 1.77 0.626 0.301 0.397 0.342 0.993 0.122 1.771-0.186 0.656-1.141 2.412-2.324 4.271-1.441 2.264-2.236 3.279-2.466 3.279-0.76 0-3.507-12.18-3.583-12.447-0.788-2.791-1.183-4.193-3.745-4.193-1.953 0-6.308 3.566-9.883 6.672-0.22 0.191-0.405 0.352-0.549 0.475-0.183 0.157-0.298 0.388-0.298 0.646 0 0.198 0.068 0.38 0.181 0.524l-0.001-0.002 0.666 0.858c0.157 0.202 0.399 0.33 0.672 0.33 0.185 0 0.357-0.059 0.496-0.16l-0.002 0.002 0.037-0.026c1.157-0.823 2.25-1.6 3.075-1.643 0.897-0.044 1.674 1.357 2.602 4.69 1.766 6.474 4.45 14.191 7.204 14.191 2.878 0 6.312-2.44 10.75-8.216 4.017-5.227 6.168-9.374 6.306-12.39 0.104-2.278-0.337-3.965-1.31-5.014z"></path>
</svg>
