<svg xmlns="http://www.w3.org/2000/svg" viewBox="0 0 55.254 55.254" width="512" height="512"><g fill="#e74c3c"><path d="M27.63 0C17.875 0 9.94 7.934 9.94 17.687c0 4.73 1.857 9.18 5.226 12.525.106.108.266.476.273.677.056 1.467.465 4.836 2.84 7.47-.127.183-.24.377-.33.59-.398.98-.3 2.07.203 2.92-.372.97-.262 2.043.22 2.858 0 .003-.003.007-.004.01-.58 1.43-.107 3.093 1.092 3.865.064.042.976.628 2.535 1.186-.017.218-.12 2.185 1.306 3.745 1.018 1.113 2.49 1.69 4.38 1.718h.13c1.815 0 3.23-.544 4.203-1.62 1.386-1.53 1.27-3.484 1.234-3.844 1.47-.527 2.376-1.078 2.533-1.18 1.213-.783 1.685-2.45 1.1-3.874l-.006-.012a3.304 3.304 0 0 0 .226-2.844c.5-.843.602-1.943.2-2.935a3.105 3.105 0 0 0-.298-.54c2.35-2.64 2.767-6.032 2.827-7.513.008-.198.175-.577.28-.685 3.355-3.355 5.2-7.802 5.2-12.52C45.315 7.933 37.383 0 27.63 0zm2.163 51.618c-.396.435-1.114.65-2.067.635-1.017-.014-1.754-.258-2.192-.725-.277-.295-.412-.656-.48-.953.483.08.99.14 1.524.18.516.04.926.05 1.01.05h.08a17.9 17.9 0 0 0 2.573-.238c-.046.32-.16.733-.447 1.05zm4.463-8.416a1.59 1.59 0 0 0-.753 1.092c-.122.755.327 1.262.603 1.578.04.1-.016.232.05.217-.022.013-2.236 1.412-5.707 1.674-.402.03-.727.04-.823.04-.097-.002-.42-.01-.822-.04-3.426-.26-5.624-1.625-5.647-1.625-.025-.04-.05-.17.045-.334.218-.245.672-.755.55-1.512a1.59 1.59 0 0 0-.752-1.093h-.033c-.024-.038-.05-.167.022-.313.215-.27.617-.774.483-1.5a1.57 1.57 0 0 0-.415-.793c1.167.546 3.356 1.345 6.24 1.388h.677a15.836 15.836 0 0 0 3.193-.376 12.9 12.9 0 0 0 1.364-.363 13.58 13.58 0 0 0 1.65-.64 1.56 1.56 0 0 0-.405.785c-.134.72.26 1.215.516 1.548.04.095.02.216.048.216h.002l-.086.05zm3.737-15.115c-.644.643-1.12 1.747-1.158 2.685-.098 2.462-.992 6.266-5.324 7.644l-.154.048c-1.003.3-2.182.475-3.574.475h-.14c-7.74-.065-9.09-5.143-9.204-8.166-.037-.957-.5-2.037-1.156-2.688-2.8-2.78-4.34-6.473-4.34-10.398C12.942 9.59 19.532 3 27.63 3S42.316 9.59 42.316 17.69c-.002 3.917-1.537 7.61-4.323 10.4z" data-original="#010002" class="active-path" data-old_color="#e74c3c"/><path d="M34.148 21.562c-6.43 5.26-12.773.216-13.04 0a.502.502 0 0 0-.812.46l2.042 13.867c.04.273.29.465.568.42a.5.5 0 0 0 .422-.566L21.452 23c2.064 1.254 7.105 3.55 12.285.108l-2.38 12.614a.5.5 0 1 0 .98.186l2.618-13.867a.5.5 0 0 0-.236-.522.5.5 0 0 0-.572.044z" data-original="#010002" class="active-path" data-old_color="#e74c3c"/></g></svg>